
<svg xmlns="http://www.w3.org/2000/svg" viewBox="0 0 24 24" fill="none" stroke="#4285F4" stroke-width="2" stroke-linecap="round" stroke-linejoin="round">
  <path d="M21 11.5a8.38 8.38 0 0 1-.9 3.8 8.5 8.5 0 0 1-7.6 4.7 8.38 8.38 0 0 1-3.8-.9L3 21l1.9-5.7a8.38 8.38 0 0 1-.9-3.8 8.5 8.5 0 0 1 4.7-7.6 8.38 8.38 0 0 1 3.8-.9h.5a8.48 8.48 0 0 1 8 8v.5z"></path>
  <circle cx="12" cy="12" r="3"></circle>
  <line x1="12" y1="5" x2="12" y2="3"></line>
  <line x1="17" y1="12" x2="19" y2="12"></line>
  <line x1="12" y1="19" x2="12" y2="21"></line>
  <line x1="5" y1="12" x2="7" y2="12"></line>
</svg>
